<?xml version="1.0" standalone="no"?><!DOCTYPE svg PUBLIC "-//W3C//DTD SVG 1.1//EN" "http://www.w3.org/Graphics/SVG/1.1/DTD/svg11.dtd"><svg width="100%" height="100%" viewBox="0 0 89084 89084" version="1.1" xmlns="http://www.w3.org/2000/svg" xmlns:xlink="http://www.w3.org/1999/xlink" xml:space="preserve" style="fill-rule:evenodd;clip-rule:evenodd;stroke-linejoin:round;stroke-miterlimit:1.41421;"><g id="_833871744_"><circle id="circle13" cx="44358.3" cy="44541.7" r="43679.2" style="fill:#fefefe;"/><path id="path15" d="M44541.7,0c24600,0 44541.7,19941.7 44541.7,44541.7c0,24600 -19941.7,44541.7 -44541.7,44541.7c-24600,0 -44541.7,-19941.7 -44541.7,-44541.7c0,-24600 19941.7,-44541.7 44541.7,-44541.7ZM44091.7,2304.17c-208.334,0 -416.667,4.166 -625,8.333c-23033.3,333.333 -41620.8,19125 -41620.8,42233.3c0,23137.5 18629.2,41941.7 41700,42233.3c-11408.3,-287.5 -20575,-9637.5 -20575,-21112.5c0,-11658.3 9462.5,-21120.8 21120.8,-21120.8c11658.3,0 21120.8,-9462.5 21120.8,-21120.8c0,-11658.3 -9462.5,-21120.8 -21120.8,-21120.8Z" style="fill:#000;"/><path id="path17" d="M37425,27579.2l0,-15745.8c0,-687.5 250,-1283.33 754.167,-1783.33c500,-500 1095.83,-754.167 1787.5,-754.167l8208.33,0c679.167,0 1266.67,250 1762.5,754.167c495.833,500 741.667,1095.83 741.667,1783.33l0,15745.8c0,700 -250,1295.83 -741.667,1791.67c-495.833,495.834 -1095.83,741.667 -1795.83,741.667l-8175,0c-708.334,0 -1312.5,-245.833 -1804.17,-741.667c-491.667,-495.833 -733.333,-1091.67 -733.333,-1791.67l-4.167,0ZM48079.2,27483.3l0,-15520.8l-8020.83,0l0,15520.8l8020.83,0Z" style="fill:#000;"/><path id="path19" d="M40425,75179.2l4041.67,0l0,-15520.8l-3975,0c-366.667,0 -675,-129.166 -933.334,-383.333c-258.333,-254.167 -383.333,-566.667 -383.333,-933.333c0,-362.5 129.167,-675 383.333,-929.167c254.167,-254.167 566.667,-383.333 933.334,-383.333l6608.33,0l0,18154.2l2633.33,0l0,-5479.17c0,-354.167 129.167,-662.5 383.334,-925c254.166,-262.5 566.666,-391.667 929.166,-391.667c366.667,0 679.167,129.167 933.334,383.333c254.166,258.334 383.333,566.667 383.333,933.334l0,6795.83c0,366.667 -129.167,679.167 -383.333,937.5c-254.167,254.167 -562.5,379.167 -933.334,379.167l-10620.8,0c-366.667,0 -675,-133.334 -929.167,-395.834c-258.333,-266.666 -383.333,-583.333 -383.333,-950c0,-354.166 129.167,-658.333 383.333,-912.5c254.167,-250 566.667,-375 929.167,-375l0,-4.166Z" style="fill:#fff;"/></g></svg>