<?xml version="1.0" encoding="UTF-8" standalone="no"?><!DOCTYPE svg PUBLIC "-//W3C//DTD SVG 1.1//EN" "http://www.w3.org/Graphics/SVG/1.1/DTD/svg11.dtd"><svg width="100%" height="100%" viewBox="0 0 3902 1103" version="1.1" xmlns="http://www.w3.org/2000/svg" xmlns:xlink="http://www.w3.org/1999/xlink" xml:space="preserve" style="fill-rule:evenodd;clip-rule:evenodd;stroke-linejoin:round;stroke-miterlimit:1.41421;"><g id="Layer_x0020_1"><path id="path10" d="M1520,667l0,100c-1,30 -7,56 -18,79c-9,20 -23,39 -43,53c-20,16 -46,25 -82,25c-36,0 -63,-9 -83,-25c-20,-15 -33,-34 -42,-53c-11,-23 -17,-49 -18,-79l0,-429c1,-29 7,-55 18,-78c9,-20 22,-40 42,-54c20,-15 48,-25 83,-25c36,0 62,10 82,25c20,15 34,35 43,54c11,23 17,49 18,78l0,100l-100,0l0,-100c0,-20 -5,-34 -16,-46c-5,-5 -14,-8 -25,-8c-19,0 -28,14 -33,27c-3,8 -4,17 -5,27l0,429c1,21 7,35 17,45c5,5 12,8 21,8c23,0 32,-12 37,-27c3,-7 4,-16 4,-27l0,-100l100,0l0,1ZM1831,785c-3,52 -19,89 -53,118c-18,15 -43,22 -75,22c-64,0 -96,-36 -112,-71c-9,-21 -15,-45 -16,-71l0,-272c3,-52 19,-91 53,-121c17,-15 42,-22 74,-22c64,0 97,36 113,70c9,21 15,44 16,69l0,278ZM1737,510c1,-21 -3,-36 -13,-48c-5,-5 -13,-8 -22,-8c-19,0 -27,13 -31,28c-3,8 -4,17 -3,28l0,272c-1,21 4,36 13,46c5,5 12,8 21,8c19,0 28,-12 32,-27c3,-8 4,-17 3,-28l0,-272l0,1ZM2153,917l-100,0l0,-36c-17,16 -32,28 -50,37c-10,5 -20,7 -29,7c-28,0 -47,-16 -58,-37c-13,-20 -19,-46 -19,-69l0,-345c0,-23 6,-49 19,-70c12,-20 31,-36 58,-36c19,0 39,11 53,22c9,7 17,14 26,22l0,-222l100,0l0,728l0,-1ZM2053,494c0,-16 -15,-33 -30,-33c-15,0 -27,14 -27,33l0,304c0,19 12,33 27,33c15,0 30,-14 30,-33l0,-304ZM2483,723l0,62c-3,52 -19,89 -54,118c-18,15 -43,22 -75,22c-64,0 -97,-36 -113,-71c-9,-21 -15,-45 -16,-71l0,-272c3,-52 20,-91 55,-121c17,-15 42,-22 74,-22c64,0 97,36 113,70c9,21 15,44 16,69l0,157l-165,0l0,118c1,21 7,36 16,46c5,5 12,8 21,8c19,0 28,-12 32,-27c3,-8 4,-17 4,-28l0,-59l93,0l-1,1ZM2318,586l72,0l0,-76c0,-21 -4,-36 -14,-48c-5,-5 -13,-8 -22,-8c-19,0 -27,13 -32,28c-3,8 -4,17 -5,28l0,76l1,0ZM2750,478c-9,-3 -19,-4 -28,-4c-16,0 -35,2 -50,17c-19,16 -22,33 -22,49l0,376l-100,0l0,-541l100,0l0,60c1,-7 8,-24 24,-40c16,-15 40,-29 76,-29l0,112ZM2794,916l0,-728l84,0c99,0 152,20 181,75c28,55 32,147 32,289c0,143 -4,233 -32,288c-29,55 -82,75 -181,75l-84,0l0,1ZM2901,809c37,0 57,-4 68,-40c5,-17 9,-43 10,-77c1,-35 1,-81 1,-141c0,-59 0,-106 -1,-141c-1,-34 -5,-59 -10,-77c-11,-35 -32,-39 -68,-39l0,515ZM3409,784c-3,52 -19,89 -53,118c-18,15 -43,22 -75,22c-64,0 -96,-36 -112,-71c-9,-21 -15,-45 -16,-71l0,-272c3,-52 19,-91 53,-121c17,-15 42,-22 74,-22c64,0 97,36 113,70c9,21 15,44 16,69l0,278ZM3315,509c1,-21 -3,-36 -13,-48c-5,-5 -13,-8 -22,-8c-19,0 -27,13 -31,28c-3,8 -4,17 -3,28l0,272c-1,21 4,36 13,46c5,5 12,8 21,8c19,0 28,-12 32,-27c3,-8 4,-17 3,-28l0,-272l0,1ZM3476,188l100,0l0,100l-100,0l0,-100ZM3576,374l0,555c0,28 0,71 -14,107c-14,37 -45,65 -101,65c-16,0 -27,-1 -34,-3c-4,-1 -7,-2 -10,-3l0,-92c3,1 6,1 9,2c7,1 13,2 19,2c17,0 25,-14 29,-31c1,-8 2,-17 2,-26c0,-9 0,-17 0,-23l0,-554l100,0l0,1ZM3902,784c-3,52 -19,89 -53,118c-18,15 -43,22 -75,22c-64,0 -96,-36 -112,-71c-9,-21 -15,-45 -16,-71l0,-272c3,-52 19,-91 53,-121c17,-15 42,-22 74,-22c64,0 97,36 113,70c9,21 15,44 16,69l0,278ZM3808,509c1,-21 -3,-36 -13,-48c-5,-5 -13,-8 -22,-8c-19,0 -27,13 -31,28c-3,8 -4,17 -3,28l0,272c-1,21 4,36 13,46c5,5 12,8 21,8c19,0 28,-12 32,-27c3,-8 4,-17 3,-28l0,-272l0,1Z" style="fill:#fefefe;"/><g id="_833781456"><circle id="circle13" cx="544" cy="546" r="536" style="fill:#fefefe;"/><path id="path15" d="M546,0c302,0 546,245 546,546c0,302 -245,546 -546,546c-302,0 -546,-245 -546,-546c0,-302 245,-546 546,-546ZM465,333l0,-197c0,-9 3,-16 9,-22c6,-6 14,-9 22,-9l103,0c9,0 16,3 22,9c6,6 9,14 9,22l0,197c0,9 -3,16 -9,22c-6,6 -14,9 -23,9l-103,0c-9,0 -16,-3 -23,-9c-6,-6 -9,-14 -9,-22l2,0ZM599,332l0,-195l-101,0l0,195l101,0ZM503,930l51,0l0,-195l-50,0c-5,0 -8,-2 -12,-5c-3,-3 -5,-7 -5,-12c0,-5 2,-8 5,-12c3,-3 7,-5 12,-5l83,0l0,228l33,0l0,-69c0,-4 2,-8 5,-12c3,-3 7,-5 12,-5c5,0 8,2 12,5c3,3 5,7 5,12l0,85c0,5 -2,9 -5,12c-3,3 -7,5 -12,5l-133,0c-5,0 -8,-2 -12,-5c-3,-3 -5,-7 -5,-12c0,-4 2,-8 5,-11c3,-3 7,-5 12,-5l-1,1ZM541,28c-3,0 -5,0 -8,0c-282,4 -510,235 -510,518c0,284 228,514 511,518c-140,-4 -252,-118 -252,-259c0,-143 116,-259 259,-259c143,0 259,-116 259,-259c0,-143 -116,-259 -259,-259Z" style="fill:#000;"/></g></g></svg>